<?xml version="1.0" encoding="UTF-8"?>
<svg width="1342px" height="206px" viewBox="0 0 1342 206" version="1.1" xmlns="http://www.w3.org/2000/svg" xmlns:xlink="http://www.w3.org/1999/xlink">
    <!-- Generator: Sketch 42 (36781) - http://www.bohemiancoding.com/sketch -->
    <title>logo_white</title>
    <desc>Created with Sketch.</desc>
    <defs>
        <polygon id="path-1" points="0.06 205.711 0.06 0.144 1341.09 0.144 1341.09 102.9275 1341.09 205.711 0.06 205.711"></polygon>
    </defs>
    <g id="Page-1" stroke="none" stroke-width="1" fill="none" fill-rule="evenodd">
        <g id="logo_white">
            <path d="M272.616,205.711 L238.568,205.711 L238.568,0.552 L272.616,0.552 L272.616,85.097 C278.388,80.291 284.975,76.297 292.383,73.122 C299.785,69.949 307.819,68.362 316.477,68.362 C324.556,68.362 331.526,69.547 337.397,71.91 C343.262,74.277 348.117,77.541 351.968,81.702 C355.814,85.864 358.65,90.782 360.481,96.459 C362.306,102.136 363.222,108.375 363.222,115.183 L363.222,205.711 L329.173,205.711 L329.173,122.045 C329.173,112.433 327.197,105.508 323.257,101.27 C319.313,97.032 313.491,94.908 305.8,94.908 C300.219,94.908 294.547,96.324 288.776,99.146 C283.005,101.973 277.617,105.909 272.616,110.95 L272.616,205.711" id="Fill-1" fill="#FFFFFF"></path>
            <path d="M486.143,137.456 C486.143,129.629 485.178,122.933 483.257,117.379 C481.332,111.825 478.785,107.32 475.61,103.858 C472.437,100.4 468.78,97.852 464.646,96.211 C460.507,94.574 456.229,93.754 451.806,93.754 C447.378,93.754 443.149,94.439 439.109,95.805 C435.069,97.171 431.508,99.538 428.433,102.906 C425.354,106.274 422.852,110.778 420.931,116.423 C419.005,122.068 418.045,129.078 418.045,137.456 C418.045,145.102 419.005,151.613 420.931,156.982 C422.852,162.357 425.403,166.816 428.577,170.368 C431.751,173.921 435.403,176.514 439.542,178.151 C443.677,179.791 447.955,180.608 452.383,180.608 C456.611,180.608 460.796,179.882 464.935,178.425 C469.068,176.969 472.676,174.602 475.755,171.325 C478.83,168.047 481.332,163.633 483.257,158.078 C485.178,152.523 486.143,145.652 486.143,137.456 Z M521.346,136.067 C521.346,147.027 519.566,156.874 516.008,165.603 C512.446,174.331 507.495,181.671 501.148,187.614 C494.799,193.556 487.392,198.11 478.929,201.266 C470.462,204.422 461.327,206 451.517,206 C441.706,206 432.617,204.517 424.249,201.541 C415.881,198.57 408.617,194.25 402.463,188.588 C396.305,182.925 391.498,175.91 388.036,167.551 C384.573,159.192 382.842,149.629 382.842,138.853 C382.842,127.708 384.618,117.726 388.18,108.903 C391.737,100.079 396.693,92.694 403.04,86.752 C409.389,80.81 416.792,76.256 425.259,73.1 C433.722,69.944 442.86,68.362 452.671,68.362 C462.482,68.362 471.571,69.804 479.94,72.68 C488.307,75.562 495.566,79.881 501.725,85.638 C507.879,91.396 512.69,98.452 516.152,106.811 C519.614,115.17 521.346,124.922 521.346,136.067 L521.346,136.067 Z" id="Fill-2" fill="#FFFFFF"></path>
            <polygon id="Fill-3" fill="#FFFFFF" points="541.54 205.711 575.012 205.711 575.012 0.552 541.54 0.552"></polygon>
            <path d="M603.287,205.711 L637.336,205.711 L637.336,68.65 L603.287,68.65 L603.287,205.711 Z M620.312,36.909 C614.347,36.909 609.681,35.178 606.318,31.716 C602.949,28.253 601.268,23.925 601.268,18.731 C601.268,13.731 602.999,9.452 606.461,5.89 C609.924,2.333 614.541,0.552 620.312,0.552 C625.889,0.552 630.411,2.284 633.874,5.746 C637.336,9.209 639.068,13.537 639.068,18.731 C639.068,23.925 637.336,28.253 633.874,31.716 C630.411,35.178 625.889,36.909 620.312,36.909 L620.312,36.909 Z" id="Fill-4" fill="#FFFFFF"></path>
            <path d="M745.252,101.888 C733.9,96.274 722.84,93.465 712.068,93.465 C704.949,93.465 699.517,94.664 695.766,97.058 C692.015,99.457 690.139,102.776 690.139,107.014 C690.139,110.517 691.677,113.511 694.756,115.999 C697.83,118.488 703.989,121.026 713.223,123.605 L721.879,126.094 C734.188,129.597 743.471,134.39 749.725,140.472 C755.974,146.554 759.103,154.57 759.103,164.526 C759.103,177.248 754.098,187.339 744.098,194.805 C734.093,202.272 720.437,206 703.124,206 C684.463,206 668.976,202.925 656.667,196.771 L664.169,171.951 C669.746,174.476 675.662,176.55 681.915,178.173 C688.164,179.796 694.656,180.608 701.393,180.608 C717.358,180.608 725.342,175.725 725.342,165.954 C725.342,161.532 723.467,158.213 719.715,156.004 C715.964,153.795 709.567,151.396 700.526,148.813 L691.582,146.049 C679.652,142.366 670.852,137.528 665.18,131.536 C659.503,125.549 656.667,117.667 656.667,107.897 C656.667,102.185 657.916,96.887 660.418,92 C662.916,87.117 666.428,82.924 670.95,79.421 C675.468,75.922 680.95,73.203 687.398,71.265 C693.841,69.331 701.005,68.362 708.895,68.362 C716.78,68.362 724.427,69.083 731.834,70.526 C739.237,71.968 746.117,74.133 752.466,77.018 L745.252,101.888" id="Fill-5" fill="#FFFFFF"></path>
            <path d="M859.225,93.465 L821.425,93.465 L821.425,162.14 C821.425,168.682 823.012,173.155 826.186,175.558 C829.36,177.965 833.444,179.165 838.449,179.165 C842.295,179.165 846.335,178.782 850.568,178.011 C854.797,177.244 858.359,176.185 861.245,174.836 L866.439,199.075 C862.782,200.617 857.827,202.105 851.578,203.547 C845.325,204.991 838.639,205.711 831.525,205.711 C815.943,205.711 804.734,202.537 797.908,196.19 C791.077,189.841 787.664,180.319 787.664,167.623 L787.664,93.465 L766.889,93.465 L766.889,68.65 L787.664,68.65 L787.664,23.925 L821.425,23.925 L821.425,68.65 L859.225,68.65 L859.225,93.465" id="Fill-6" fill="#FFFFFF"></path>
            <path d="M886.058,205.711 L920.107,205.711 L920.107,68.65 L886.058,68.65 L886.058,205.711 Z M903.082,36.909 C897.117,36.909 892.451,35.178 889.088,31.716 C885.72,28.253 884.038,23.925 884.038,18.731 C884.038,13.731 885.77,9.452 889.232,5.89 C892.694,2.333 897.312,0.552 903.082,0.552 C908.659,0.552 913.182,2.284 916.645,5.746 C920.107,9.209 921.838,13.537 921.838,18.731 C921.838,23.925 920.107,28.253 916.645,31.716 C913.182,35.178 908.659,36.909 903.082,36.909 L903.082,36.909 Z" id="Fill-7" fill="#FFFFFF"></path>
            <path d="M1017.92,180.608 C1024.08,180.608 1029.51,179.931 1034.23,178.578 C1038.94,177.226 1042.93,175.739 1046.2,174.116 L1052.84,197.637 C1048.6,199.755 1043.03,201.676 1036.1,203.408 C1029.18,205.139 1021.57,206 1013.31,206 C1003.11,206 993.585,204.562 984.739,201.681 C975.889,198.804 968.193,194.485 961.655,188.728 C955.113,182.97 949.969,175.82 946.218,167.271 C942.467,158.728 940.591,148.79 940.591,137.46 C940.591,127.059 942.367,117.586 945.929,109.042 C949.486,100.499 954.486,93.208 960.934,87.171 C967.377,81.134 975.072,76.491 984.018,73.24 C992.963,69.989 1002.82,68.362 1013.59,68.362 C1019.55,68.362 1025.71,68.939 1032.06,70.093 C1038.41,71.247 1045.24,73.555 1052.55,77.018 L1045.34,101.617 C1040.91,99.002 1036.39,96.987 1031.77,95.58 C1027.16,94.173 1022.35,93.465 1017.35,93.465 C1004.65,93.465 994.45,97.153 986.759,104.53 C979.063,111.906 975.217,122.604 975.217,136.626 C975.217,144.823 976.466,151.743 978.968,157.388 C981.466,163.034 984.739,167.587 988.778,171.049 C992.818,174.512 997.386,176.969 1002.49,178.425 C1007.58,179.882 1012.73,180.608 1017.92,180.608" id="Fill-8" fill="#FFFFFF"></path>
            <path d="M1160.17,137.456 C1160.17,129.629 1159.21,122.933 1157.29,117.379 C1155.36,111.825 1152.82,107.32 1149.64,103.858 C1146.47,100.4 1142.81,97.852 1138.68,96.211 C1134.54,94.574 1130.26,93.754 1125.84,93.754 C1121.41,93.754 1117.18,94.439 1113.14,95.805 C1109.1,97.171 1105.54,99.538 1102.46,102.906 C1099.38,106.274 1096.88,110.778 1094.96,116.423 C1093.04,122.068 1092.08,129.078 1092.08,137.456 C1092.08,145.102 1093.04,151.613 1094.96,156.982 C1096.88,162.357 1099.43,166.816 1102.61,170.368 C1105.78,173.921 1109.43,176.514 1113.57,178.151 C1117.71,179.791 1121.99,180.608 1126.41,180.608 C1130.64,180.608 1134.83,179.882 1138.97,178.425 C1143.1,176.969 1146.71,174.602 1149.79,171.325 C1152.86,168.047 1155.36,163.633 1157.29,158.078 C1159.21,152.523 1160.17,145.652 1160.17,137.456 Z M1195.38,136.067 C1195.38,147.027 1193.6,156.874 1190.04,165.603 C1186.48,174.331 1181.53,181.671 1175.18,187.614 C1168.83,193.556 1161.42,198.11 1152.96,201.266 C1144.49,204.422 1135.36,206 1125.55,206 C1115.74,206 1106.65,204.517 1098.28,201.541 C1089.91,198.57 1082.65,194.25 1076.49,188.588 C1070.34,182.925 1065.53,175.91 1062.07,167.551 C1058.6,159.192 1056.87,149.629 1056.87,138.853 C1056.87,127.708 1058.65,117.726 1062.21,108.903 C1065.77,100.079 1070.72,92.694 1077.07,86.752 C1083.42,80.81 1090.82,76.256 1099.29,73.1 C1107.75,69.944 1116.89,68.362 1126.7,68.362 C1136.51,68.362 1145.6,69.804 1153.97,72.68 C1162.34,75.562 1169.6,79.881 1175.76,85.638 C1181.91,91.396 1186.72,98.452 1190.18,106.811 C1193.65,115.17 1195.38,124.922 1195.38,136.067 L1195.38,136.067 Z" id="Fill-9" fill="#FFFFFF"></path>
            <g id="Group-13">
                <mask id="mask-2" fill="white">
                    <use xlink:href="#path-1"></use>
                </mask>
                <g id="Clip-11"></g>
                <path d="M1251.64,205.711 L1217.59,205.711 L1217.59,68.65 L1244.14,68.65 L1248.47,88.596 C1255,82.23 1262.03,77.266 1269.53,73.704 C1277.03,70.142 1285.4,68.362 1294.63,68.362 C1309.44,68.362 1320.89,72.383 1328.97,80.422 C1337.05,88.465 1341.09,99.863 1341.09,114.619 L1341.09,205.711 L1307.04,205.711 L1307.04,118.934 C1307.04,111.775 1305.17,105.981 1301.41,101.554 C1297.66,97.126 1292.04,94.908 1284.53,94.908 C1278.95,94.908 1273.28,96.464 1267.51,99.574 C1261.74,102.685 1256.45,106.851 1251.64,112.068 L1251.64,205.711" id="Fill-10" fill="#FFFFFF" mask="url(#mask-2)"></path>
                <path d="M171.688,103.26 L171.674,103.26 C171.385,141.18 140.567,171.833 102.58,171.833 C64.412,171.833 33.471,140.892 33.471,102.724 C33.471,64.557 64.412,33.616 102.58,33.616 L171.688,33.616 L171.688,103.26 Z M205.159,0.145 L205.159,0.144 L102.58,0.144 L102.58,0.145 C45.926,0.145 0,46.071 0,102.724 C0,159.377 45.927,205.304 102.58,205.304 C159.233,205.304 205.159,159.377 205.159,102.724 C205.159,102.696 205.158,102.669 205.158,102.641 L205.159,102.641 L205.159,0.145 L205.159,0.145 Z" id="Fill-12" fill="#FFFFFF" mask="url(#mask-2)"></path>
            </g>
        </g>
    </g>
</svg>
